<svg width="32" height="36" viewBox="0 0 32 36" fill="none" xmlns="http://www.w3.org/2000/svg">
<path d="M16.625 0.746109C18.4472 0.746109 20.1951 1.44133 21.4844 2.67938C22.6941 3.84103 23.4071 5.39135 23.4915 7.02541L23.5 7.35325V10.7461H28.2618L30.9581 30.6599C31.1292 31.9248 30.7712 33.2077 29.9705 34.1818C29.2147 35.1012 28.1324 35.662 26.9725 35.7374L26.7036 35.7461H5.2964C4.03598 35.7461 2.84342 35.1719 2.02949 34.1818C1.28594 33.2773 0.924141 32.1065 1.01328 30.931L1.04189 30.6598L3.73816 10.7461H9.75V7.35325C9.75 3.70301 12.8293 0.746109 16.625 0.746109ZM26.0762 13.2461H23.5V18.2461H20.9078L20.9075 13.2461H12.3413L12.3422 18.2461H9.75V13.2461H5.92249L3.5193 30.9951C3.45827 31.4462 3.54353 31.9006 3.75217 32.2843L3.84908 32.4442L3.9607 32.5942C4.26107 32.9596 4.67122 33.1847 5.10788 33.2352L5.2964 33.2461H26.7036C27.2093 33.2461 27.696 33.0118 28.0393 32.5942C28.3562 32.2087 28.5205 31.7033 28.498 31.1885L28.4807 30.9953L26.0762 13.2461ZM16.625 3.24611C14.34 3.24611 12.4749 4.96144 12.349 7.12031L12.3422 7.35325L12.3413 10.7461H20.9075L20.9078 7.35325C20.9078 6.26511 20.4575 5.22121 19.6554 4.45098C18.8522 3.67971 17.762 3.24611 16.625 3.24611Z" fill="black" stroke="black" stroke-width="0.3" stroke-linecap="square" stroke-linejoin="round"/>
</svg>
