<svg width="30" height="35" viewBox="0 0 30 35" fill="none" xmlns="http://www.w3.org/2000/svg">
<path d="M20 21.4128C22.3011 21.4128 24.3845 22.3455 25.8925 23.8535C27.4006 25.3616 28.3333 27.4449 28.3333 29.7461V33.0794H1.66663V29.7461C1.66663 27.4449 2.59937 25.3616 4.1074 23.8535C5.61544 22.3455 7.69877 21.4128 9.99996 21.4128H20ZM15.3825 1.41277C17.1245 1.41277 18.7091 2.09212 19.8784 3.19815C21.0391 4.29616 21.7912 5.81537 21.8747 7.50659L21.8825 9.16918C21.8825 10.9347 21.1545 12.5342 19.9828 13.693C18.8043 14.8586 17.177 15.5794 15.3825 15.5794C13.6404 15.5794 12.0558 14.9001 10.8866 13.7941C9.72584 12.6961 8.97376 11.1768 8.89027 9.48562L8.88248 7.82303C8.88248 6.05748 9.61041 4.45803 10.7822 3.29916C11.9606 2.13366 13.588 1.41277 15.3825 1.41277Z" stroke="black" stroke-width="2"/>
</svg>
