<svg width="98" height="32" fill="none" xmlns="http://www.w3.org/2000/svg">
  <path fill-rule="evenodd" clip-rule="evenodd" d="M3.845 23.558H.86V2.965H3.84v7.44C4.955 9.115 6.54 8.59 7.89 8.59c4.203 0 6.454 2.684 6.454 6.545v8.423h-2.987v-8.355c0-2.16-1.474-3.637-3.547-3.637-2.26 0-3.965 1.683-3.965 3.757v8.235zM20.69 23.555h-3.032V8.962h3.032v14.593zM19.174 2.451a2.049 2.049 0 010 4.095 2.049 2.049 0 010-4.095zM33.692 17.223v-2.87h-8.598v2.87h8.598z" fill="#fff"/>
  <path d="M47.944 20.233c-1.38.772-2.643.72-2.643.72v-.001l-.123.002c-.956 0-1.665-.252-2.166-.77-.831-.856-.971-2.343-.956-2.835v-5.514h5.708v-2.87h-5.707v-6h-2.978v6h-2.955v2.87h2.955v5.608c-.1 3.16 1.742 6.489 6.099 6.489a7.805 7.805 0 004.274-1.273l-1.508-2.426z" fill="#fff"/>
  <path fill-rule="evenodd" clip-rule="evenodd" d="M64.655 20.99a3.536 3.536 0 01-.143.16c-2.327 2.45-4.72 2.775-6.535 2.775a7.674 7.674 0 01-7.671-7.671 7.675 7.675 0 017.67-7.671c3 0 5.6 1.726 6.862 4.239.186.383.93 2.124.666 4.914H53.52c.562 1.884 2.366 3.243 4.456 3.243 2.187-.002 3.729-.936 4.769-1.92l1.909 1.932zm-2.142-6.124c-.474-1.815-2.194-3.298-4.536-3.298-2.342 0-4.048 1.452-4.5 3.298h9.036zM81.78 20.75a7.737 7.737 0 01-6.254 3.175 7.674 7.674 0 01-7.671-7.671 7.675 7.675 0 017.67-7.671c2.33 0 4.46 1.042 5.868 2.684l-2.363 1.826c-.858-.94-2.017-1.53-3.504-1.53-2.59 0-4.625 2.102-4.625 4.69 0 2.59 2.036 4.692 4.625 4.692 1.699 0 3.016-.781 3.866-1.978l2.388 1.784zM87.059 23.558h-2.986V2.965h2.98v7.44c1.116-1.291 2.7-1.815 4.05-1.815 4.205 0 6.455 2.684 6.455 6.545v8.423h-2.986v-8.355c0-2.16-1.474-3.637-3.547-3.637-2.261 0-3.966 1.683-3.966 3.757v8.235z" fill="#fff"/>
</svg>
