<svg width="32" height="32" viewBox="0 0 32 32" xmlns="http://www.w3.org/2000/svg"><path d="M20.813 16A4.818 4.818 0 0 1 16 20.813 4.818 4.818 0 0 1 11.187 16 4.818 4.818 0 0 1 16 11.187 4.818 4.818 0 0 1 20.813 16M16 0C7.178 0 0 7.178 0 16s7.178 16 16 16c3.232 0 6.349-.962 9.012-2.783l.047-.032-2.156-2.506-.036.024A12.666 12.666 0 0 1 16 28.72C8.986 28.72 3.28 23.014 3.28 16S8.986 3.28 16 3.28 28.72 8.986 28.72 16c0 .909-.101 1.829-.3 2.734-.402 1.65-1.558 2.157-2.426 2.09-.873-.07-1.894-.693-1.9-2.215v-2.61c0-4.462-3.631-8.092-8.094-8.092-4.463 0-8.093 3.63-8.093 8.093s3.63 8.093 8.093 8.093a8.029 8.029 0 0 0 5.734-2.389 5.202 5.202 0 0 0 3.997 2.39 5.402 5.402 0 0 0 3.678-1.078c.96-.729 1.675-1.782 2.07-3.047.064-.204.18-.672.18-.675l.004-.017C31.896 18.262 32 17.25 32 16c0-8.822-7.178-16-16-16" fill="#FF9E00" fill-rule="evenodd"/></svg>